# xmcd
#
# Track frame offsets:
#	150
#	10182
#	24887
#	38722
#	50697
#	61797
#	76035
#	86940
#	104490
#	115815
#	128832
#	139545
#	153047
#	168240
#
# Disc length: 2413 seconds
#
# Revision: 1
# Processed by: cddbd v1.5.2PL0 Copyright (c) Steve Scherf et al.
# Submitted via: EasyCDDAExtractor 8.2.3.1
#
DISCID=a0096b0e
DTITLE=Leona Williams - Melted Down Memories
DYEAR=1999
DGENRE=Country
TTITLE0=I Ain't Gonna Think About You
TTITLE1=Melted Down Memories
TTITLE2=Guitar Pickin Song
TTITLE3=He's Just You Made Over
TTITLE4=Where The Soul Of Man Never Dies
TTITLE5=You Weren't There
TTITLE6=The Telephone Line
TTITLE7=Someday When Things Are Good
TTITLE8=Rock Me To Sleep
TTITLE9=You Take Me For Granted
TTITLE10=Broken Record
TTITLE11=Where No One Stands Alone
TTITLE12=I'm Almost Ready
TTITLE13=My First Night Away From Home
EXTD=
EXTT0=
EXTT1=
EXTT2=
EXTT3=
EXTT4=
EXTT5=
EXTT6=
EXTT7=
EXTT8=
EXTT9=
EXTT10=
EXTT11=
EXTT12=
EXTT13=
PLAYORDER=
